<svg id="Layer_1" data-name="Layer 1" xmlns="http://www.w3.org/2000/svg" xmlns:xlink="http://www.w3.org/1999/xlink" viewBox="0 0 1516.71 356.5"><defs><style>.cls-1{fill:url(#linear-gradient);}.cls-2{fill:url(#linear-gradient-2);}.cls-3{fill:url(#linear-gradient-3);}.cls-4{fill:url(#linear-gradient-4);}.cls-5{fill:url(#linear-gradient-5);}</style><linearGradient id="linear-gradient" x1="758.36" x2="758.36" y2="356.5" gradientUnits="userSpaceOnUse"><stop offset="0" stop-color="#4684b4"/><stop offset="0.21" stop-color="#4581af"/><stop offset="0.47" stop-color="#43789f"/><stop offset="0.76" stop-color="#406a86"/><stop offset="1" stop-color="#3d5a6b"/></linearGradient><linearGradient id="linear-gradient-2" x1="128.54" y1="229.45" x2="128.54" y2="157.32" gradientUnits="userSpaceOnUse"><stop offset="0" stop-color="#4682b2" stop-opacity="0"/><stop offset="0.5" stop-color="#010101"/><stop offset="1" stop-color="#4682b2" stop-opacity="0"/></linearGradient><linearGradient id="linear-gradient-3" x1="1193.92" y1="148.51" x2="1193.92" y2="71.55" gradientUnits="userSpaceOnUse"><stop offset="0" stop-color="#406781" stop-opacity="0"/><stop offset="0.5" stop-color="#010101"/><stop offset="1" stop-color="#406781" stop-opacity="0"/></linearGradient><linearGradient id="linear-gradient-4" x1="529.1" y1="148.51" x2="529.1" y2="71.55" xlink:href="#linear-gradient-3"/><linearGradient id="linear-gradient-5" x1="1343.38" y1="208.01" x2="1404.08" y2="233.65" gradientUnits="userSpaceOnUse"><stop offset="0" stop-color="#3f6278" stop-opacity="0"/><stop offset="1" stop-color="#010101" stop-opacity="0.25"/></linearGradient></defs><path class="cls-1" d="M235.46,166.82q.1-4.65.26-9.3a1.41,1.41,0,0,1,0-.2c.73-24.41,2.25-48.44,4.55-71.39H187.56c-.37,4-1.65,22.64-1.88,25.63C175.45,98.41,154.87,87.09,127.05,86c-.91,0-1.77-.06-2.68-.06h-1.53a102,102,0,0,0-10.59.49,108.9,108.9,0,0,0-87.4,70.9c0,.07-.05.14-.08.2-1.11,3-2.06,6.14-2.89,9.3h-19A119.86,119.86,0,0,0,0,193.52,122.26,122.26,0,0,0,2.8,220H21.36c.78,3.23,1.68,6.4,2.74,9.5q1.37,4.05,3,7.94a108.92,108.92,0,0,0,92.59,65.88H120c.91.05,1.89.05,2.86.05.49,0,1,0,1.53-.05,1,0,2.07,0,3.11-.07,27.14-1.34,49.79-13.82,58.25-24.83.25,2.62,1.46,20.76,1.83,24.95h52.72c-2.13-21.24-3.59-43.4-4.38-65.93q-.15-4-.27-7.94c-.09-3.16-.17-6.32-.24-9.5h17.86q-.76-26.56,0-53.13Zm-158.09-9.3c0-.06.09-.13.15-.2a58.82,58.82,0,0,1,95,0c.06.07.1.14.15.2a63.1,63.1,0,0,1,5.64,9.3H71.73A63.1,63.1,0,0,1,77.37,157.52ZM174,229.45a60.14,60.14,0,0,1-6.43,7.94,58.57,58.57,0,0,1-85.1,0,60.21,60.21,0,0,1-6.44-7.94,61,61,0,0,1-5.3-9.5H179.32A61,61,0,0,1,174,229.45ZM462.28,86h.4V205.35a98.07,98.07,0,0,1-96.46,98,10.19,10.19,0,0,1-1.56.08,9.81,9.81,0,0,1-1.53-.08,98.16,98.16,0,0,1-96.5-98V86h54.84V205.35A43.21,43.21,0,0,0,370,248.21c22-2.64,37.89-22.59,37.89-44.78V86h54.36Zm1054.43-1.32-110.53,271.6a.45.45,0,0,1-.4.25h-63.13a.4.4,0,0,1-.37-.56l27.44-69.46,0-.13-90.09-201.7h66.86l51.72,130.15L1449.8,84.65ZM1070.27,26.36V26c.21-14.38,12.66-26,27.72-26,14.71,0,26.81,11.66,27,26v.32a26.82,26.82,0,0,1-26.08,26.72,7.16,7.16,0,0,1-.93,0,6.93,6.93,0,0,1-.92,0C1082.3,52.64,1070.27,40.9,1070.27,26.36ZM587,84.65h14.31v50.71H556.51v66.23c0,23.75,19.18,46.75,42.78,47a.4.4,0,0,1,.4.4v54.41a9.12,9.12,0,0,1-1.48-.08c-53.37-.76-96.5-42.23-96.5-95.83V135.36H475.63V84.65h26.08V27a.44.44,0,0,1,.43-.43h53.92a.44.44,0,0,1,.45.43V84.65Zm468.57,98.06V303.35h-54.8V182.71a43.26,43.26,0,0,0-43.2-43.22h0a43.26,43.26,0,0,0-43.25,43.22V303.35h-54.8V89.7h54.8v8.68C930.8,78.1,1055.59,66.42,1055.59,182.71ZM730.76,80H730c-63.45,0-115.25,49.9-115.25,110.64,0,60,49.2,108.6,110.49,110.89a.24.24,0,0,0,.32,0c1.48.11,2.92.11,4.44.11,1.77,0,3.61,0,5.38-.11h.11c61-2.69,110.57-51.2,110.57-110.89C846.1,130.2,793.86,80.44,730.76,80Zm-.27,171.33H730c-33.2,0-58.48-25.4-58.48-60.69,0-33.61,26-60,58.48-60h.45c32.64.16,57.92,26.13,57.92,60C788.41,225,763.13,251.17,730.49,251.34ZM1126.56,85.09h.44V303.38h-58V85.09h57.52Zm125.27-.44h14.32v50.71h-44.83v66.23c0,23.75,19.19,46.75,42.79,47a.4.4,0,0,1,.4.4v54.41a9.24,9.24,0,0,1-1.49-.08c-53.36-.76-96.5-42.23-96.5-95.83V135.36h-26.08V84.65h26.08V27a.44.44,0,0,1,.44-.43h53.91a.44.44,0,0,1,.45.43V84.65Z"/><path class="cls-2" d="M70.75,220a60.64,60.64,0,0,0,5.3,9.5H24.1q-1.59-4.66-2.75-9.5Zm-45.9-62.63c0,.06-.05.13-.08.2q-1.66,4.56-2.9,9.31H71.72a61.41,61.41,0,0,1,5.65-9.31,1.49,1.49,0,0,1,.15-.2ZM179.32,220a60.64,60.64,0,0,1-5.3,9.5h61.61c-.09-3.16-.17-6.32-.25-9.5Zm-6.77-62.63a1.49,1.49,0,0,1,.15.2,61.41,61.41,0,0,1,5.65,9.31h57.1c.08-3.11.16-6.22.27-9.31a1.27,1.27,0,0,1,0-.2Z"/><path class="cls-3" d="M1166.52,135.36v13.15h54.8V135.36Zm0-63.81v13.1h54.8V71.55Z"/><path class="cls-4" d="M501.7,135.36v13.15h54.81V135.36Zm0-63.81v13.1h54.81V71.55Z"/><polygon class="cls-5" points="1398.17 215.11 1369.68 286.65 1310.12 153.25 1373.61 153.25 1398.17 215.11"/></svg>