<svg id="Layer_1" data-name="Layer 1" xmlns="http://www.w3.org/2000/svg" xmlns:xlink="http://www.w3.org/1999/xlink" viewBox="0 0 319.35 274.14"><defs><style>.cls-1{fill:url(#linear-gradient);}.cls-2{fill:url(#linear-gradient-2);}</style><linearGradient id="linear-gradient" x1="159.68" x2="159.68" y2="274.14" gradientUnits="userSpaceOnUse"><stop offset="0" stop-color="#fff"/><stop offset="0.17" stop-color="#fafafa"/><stop offset="0.38" stop-color="#eaeaea"/><stop offset="0.61" stop-color="#d1d1d1"/><stop offset="0.86" stop-color="#aeaeae"/><stop offset="1" stop-color="#969696"/></linearGradient><linearGradient id="linear-gradient-2" x1="162.09" y1="180.98" x2="162.09" y2="90.02" gradientUnits="userSpaceOnUse"><stop offset="0" stop-color="#fff" stop-opacity="0"/><stop offset="0.5" stop-color="#010101"/><stop offset="1" stop-color="#fff" stop-opacity="0"/></linearGradient></defs><path class="cls-1" d="M296.91,102q.15-5.88.33-11.73a1,1,0,0,1,0-.25c.92-30.78,2.83-61.1,5.73-90H236.51c-.45,5.07-2.07,28.55-2.37,32.32C221.24,15.74,195.29,1.46,160.21.07,159.06.07,158,0,156.83,0h-1.92a129.8,129.8,0,0,0-13.36.61A137.33,137.33,0,0,0,31.33,90l-.09.25C29.84,94.1,28.64,98,27.59,102h-24A151.57,151.57,0,0,0,0,135.67,154.84,154.84,0,0,0,3.53,169H26.94c1,4.06,2.12,8.06,3.45,12q1.72,5.1,3.84,10A137.37,137.37,0,0,0,151,274.07h.3c1.15.07,2.38.07,3.61.07a18.25,18.25,0,0,0,1.92-.07c1.31,0,2.61,0,3.92-.09,34.23-1.69,62.79-17.42,73.46-31.32.31,3.31,1.85,26.18,2.3,31.48H303c-2.68-26.79-4.53-54.73-5.52-83.14-.12-3.33-.24-6.67-.33-10q-.18-6-.31-12h22.52q-1-33.51,0-67ZM97.56,90.28a2.35,2.35,0,0,1,.19-.25,74.17,74.17,0,0,1,119.84,0,2.35,2.35,0,0,1,.19.25A78.27,78.27,0,0,1,224.89,102H90.45A79.1,79.1,0,0,1,97.56,90.28ZM219.45,181a77,77,0,0,1-8.11,10A73.87,73.87,0,0,1,104,191a76.2,76.2,0,0,1-8.12-10,77.28,77.28,0,0,1-6.68-12H226.13A79,79,0,0,1,219.45,181Z"/><path class="cls-2" d="M89.22,169a76,76,0,0,0,6.68,12H30.39c-1.33-3.92-2.48-7.9-3.46-12ZM31.33,90l-.09.25Q29.14,96,27.57,102H90.44a78.93,78.93,0,0,1,7.12-11.74c.06-.08.12-.17.19-.25Zm194.8,79a76.83,76.83,0,0,1-6.68,12h77.69q-.18-6-.32-12Zm-8.54-79c.07.08.13.17.19.25A79,79,0,0,1,224.91,102h72q.13-5.88.33-11.74a1.06,1.06,0,0,1,0-.25Z"/></svg>