<svg width="80" height="80" viewBox="0 0 80 80" fill="none" xmlns="http://www.w3.org/2000/svg">
<path d="M4 4H76V76H4V4Z" stroke="white" stroke-width="8"/>
<path d="M36.7109 58.0429C32.5232 58.0429 29.3245 56.7382 27.1149 54.1287C24.9053 51.5193 23.6848 47.6157 23.4533 42.4179H20.202V37.0517H23.548C24.4318 27.4347 29.093 22.6262 37.5316 22.6262C40.2883 22.6262 42.6557 23.3312 44.6338 24.7411C46.633 26.13 48.1376 28.1081 49.1477 30.6755H49.2424C49.7685 28.066 50.5577 25.5934 51.6099 23.2575H59.9748C59.4066 24.3097 58.8173 25.5829 58.2071 27.077C57.5968 28.55 57.0181 30.1388 56.471 31.8434C55.9449 33.5479 55.4819 35.284 55.0821 37.0517H59.3119V42.4179H54.9242C55.3241 45.1957 55.8502 47.8367 56.5025 50.3409C57.1759 52.824 57.9861 55.1809 58.9331 57.4116H50.4104C49.9264 56.2331 49.495 55.0231 49.1162 53.7815C48.7374 52.5189 48.4217 51.2352 48.1692 49.9305H48.0429C46.7382 52.7714 45.181 54.8337 43.3712 56.1174C41.5615 57.4011 39.3413 58.0429 36.7109 58.0429ZM38.6995 28.75C36.8897 28.75 35.5219 29.4128 34.596 30.7386C33.6911 32.0433 33.1124 34.1477 32.8599 37.0517H45.3283C44.7601 34.4423 43.9078 32.4116 42.7715 30.9596C41.6562 29.4865 40.2988 28.75 38.6995 28.75ZM38.447 51.9507C40.0884 51.9507 41.5404 51.109 42.803 49.4255C44.0867 47.7209 45.0021 45.3851 45.5492 42.4179H32.7652C32.8914 45.7638 33.3965 48.1944 34.2803 49.7096C35.1852 51.2037 36.5741 51.9507 38.447 51.9507Z" fill="white"/>
</svg>
